<svg width="75" height="76" viewBox="0 0 75 76" fill="none" xmlns="http://www.w3.org/2000/svg">
<g clip-path="url(#clip0)">
<path d="M75 38C75.0067 43.144 73.9792 48.2355 71.98 52.9639L71.8558 53.2539C68.4742 61.0495 62.6106 67.4708 55.2027 71.491C47.7948 75.5112 39.2705 76.8981 30.993 75.43C30.7677 75.3895 30.5429 75.3475 30.3184 75.304C27.9989 74.8484 25.7275 74.1696 23.5351 73.277C23.179 73.132 22.8254 72.9817 22.4745 72.8262C22.2348 72.7205 21.9952 72.6114 21.7578 72.499C15.2629 69.4487 9.76388 64.5804 5.90895 58.4681C2.05401 52.3557 0.00381286 45.254 0 38C0 17.0134 16.7896 0 37.5 0C58.2104 0 75 17.0134 75 38Z" fill="#0B39FF"/>
<path opacity="0.2" d="M30.993 75.43C30.7677 75.3895 30.5429 75.3475 30.3184 75.3041C30.172 70.997 29.6694 62.157 27.9552 52.8987C27.0178 47.8317 25.7163 42.6376 23.9112 37.9944C23.2928 36.3878 22.5865 34.8174 21.7955 33.2905C19.9715 29.7996 17.7592 26.8608 15.0766 24.8698L15.4715 24.3234C17.7027 25.9805 19.7078 28.307 21.4871 31.3028C22.0207 32.1999 22.5333 33.1571 23.0248 34.1741C23.5518 35.2624 24.0544 36.4178 24.5325 37.6402C24.8377 38.4182 25.1324 39.2232 25.4168 40.0551C26.655 43.6674 27.7075 47.7889 28.5743 52.4198C28.7663 53.4428 28.949 54.491 29.1224 55.5643C30.466 63.8805 30.8709 71.5693 30.993 75.43Z" fill="#1C1C1C"/>
<path opacity="0.2" d="M22.4745 72.8262C22.2348 72.7206 21.9952 72.6115 21.7578 72.4991C21.5259 69.947 21.0999 66.7811 20.321 63.7759C19.9799 62.4262 19.542 61.1036 19.0107 59.8185C18.122 57.7106 16.9715 55.9185 15.4837 54.8133L15.8787 54.2681C17.4364 55.4238 18.6379 57.2507 19.5666 59.3879C20.6128 61.7961 21.3106 64.5989 21.7755 67.2769C22.1206 69.2657 22.338 71.1871 22.4745 72.8262Z" fill="#1C1C1C"/>
<path opacity="0.2" d="M11.3456 24.8541C13.1893 24.8541 14.6838 23.3395 14.6838 21.4713C14.6838 19.6031 13.1893 18.0886 11.3456 18.0886C9.50196 18.0886 8.00739 19.6031 8.00739 21.4713C8.00739 23.3395 9.50196 24.8541 11.3456 24.8541Z" fill="#1C1C1C"/>
<path opacity="0.2" d="M12.4206 53.9735C14.2643 53.9735 15.7589 52.459 15.7589 50.5907C15.7589 48.7225 14.2643 47.208 12.4206 47.208C10.577 47.208 9.0824 48.7225 9.0824 50.5907C9.0824 52.459 10.577 53.9735 12.4206 53.9735Z" fill="#1C1C1C"/>
<path opacity="0.2" d="M24.5985 27.1533C23.8906 31.2003 25.4533 34.8648 25.4533 34.8648C25.4533 34.8648 28.1637 31.9678 28.8716 27.9208C29.5795 23.8737 28.0168 20.2092 28.0168 20.2092C28.0168 20.2092 25.3064 23.1063 24.5985 27.1533Z" fill="#1C1C1C"/>
<path opacity="0.2" d="M13.5042 36.7601C17.3135 38.1716 21.1414 37.2658 21.1414 37.2658C21.1414 37.2658 18.7931 34.0714 14.9837 32.6599C11.1744 31.2484 7.34651 32.1542 7.34651 32.1542C7.34651 32.1542 9.69482 35.3486 13.5042 36.7601Z" fill="#1C1C1C"/>
<path opacity="0.2" d="M12.8582 62.5464C15.5283 63.5357 18.2151 62.8903 18.2151 62.8903C18.2151 62.8903 16.5729 60.6409 13.9028 59.6515C11.2328 58.6621 8.54597 59.3075 8.54597 59.3075C8.54597 59.3075 10.1882 61.557 12.8582 62.5464Z" fill="#1C1C1C"/>
<path d="M37.423 46.415C45.4971 46.415 52.0425 39.7824 52.0425 31.6006C52.0425 23.4188 45.4971 16.7862 37.423 16.7862C29.3489 16.7862 22.8035 23.4188 22.8035 31.6006C22.8035 39.7824 29.3489 46.415 37.423 46.415Z" fill="white"/>
<path d="M31.7123 42.9429C31.7123 42.9429 33.5397 51.7389 33.5397 52.6648C33.5397 53.5907 42.22 57.7572 42.22 57.7572L49.9866 56.3684L52.7278 48.0353C52.7278 48.0353 48.1592 41.0911 48.1592 38.3134L31.7123 42.9429Z" fill="white"/>
<path d="M71.98 52.9639L71.8558 53.254C68.4742 61.0495 62.6106 67.4708 55.2027 71.491C47.7948 75.5113 39.2705 76.8982 30.993 75.43C30.7678 75.3895 30.5429 75.3475 30.3184 75.3041C27.9989 74.8484 25.7275 74.1697 23.5351 73.277C23.179 73.132 22.8254 72.9817 22.4745 72.8262C22.2348 72.7205 21.9952 72.6115 21.7578 72.499C19.6057 71.4887 17.5532 70.2736 15.628 68.8699L13.895 63.7759L14.8691 63.0227L16.8728 61.4723L19.0107 59.8186L19.5666 59.388L27.9553 52.8987L28.5743 52.4198L32.9345 49.047L32.9357 49.0459C32.9357 49.0459 37.6509 56.8314 44.5041 54.5166C51.3573 52.2017 51.2075 45.5641 51.2075 45.5641L71.98 52.9639Z" fill="#1C1C1C"/>
<path d="M24.745 19.6651C24.745 19.6651 29.3867 9.47416 38.2831 11.8259C47.1795 14.1777 52.208 17.7053 52.5948 21.2329C52.9816 24.7606 52.4014 30.052 52.4014 30.052C52.4014 30.052 51.4344 22.8008 45.2455 24.3686C39.0567 25.9365 29.3867 24.7606 29.3867 24.7606L27.8394 38.8711C27.8394 38.8711 26.0988 36.3234 24.1648 37.8912C22.2308 39.4591 18.5562 22.8008 24.745 19.6651Z" fill="#1C1C1C"/>
<path d="M23.5351 73.277C23.179 73.132 22.8254 72.9817 22.4745 72.8262C22.2348 72.7205 21.9952 72.6114 21.7577 72.499C18.1985 70.8265 14.9195 68.5998 12.0399 65.8996C13.0595 64.492 13.8949 63.7759 13.8949 63.7759H20.7481L21.7755 67.2768L23.5351 73.277Z" fill="#1C1C1C"/>
<path d="M65.9767 52.2017L71.8558 53.254C70.2825 56.8859 68.1576 60.2458 65.5584 63.2115L65.9767 52.2017Z" fill="#1C1C1C"/>
</g>
<defs>
<clipPath id="clip0">
<rect width="75" height="76" fill="white"/>
</clipPath>
</defs>
</svg>
