<svg width="76" height="76" viewBox="0 0 76 76" fill="none" xmlns="http://www.w3.org/2000/svg">
<g clip-path="url(#clip0)">
<path d="M75.9996 38C76.0055 42.8816 75.0683 47.7183 73.2395 52.2444C73.235 52.2545 73.2317 52.2635 73.2271 52.2736V52.2747C71.9979 55.3054 70.3808 58.1638 68.4164 60.7786C68.0376 61.2846 67.6467 61.78 67.2438 62.2649C67.0966 62.4425 66.947 62.6191 66.7975 62.7933C66.0274 63.6871 65.2172 64.5434 64.3669 65.3623C64.169 65.5534 63.9689 65.7422 63.7665 65.9289C63.7193 65.9727 63.6721 66.0154 63.6248 66.0593C62.6345 66.9643 61.5968 67.8162 60.5163 68.6114C59.7911 69.1476 59.0469 69.6569 58.2835 70.1392C58.116 70.246 57.9473 70.351 57.7776 70.454C57.483 70.6339 57.1858 70.8097 56.886 70.9813C56.4948 71.2062 56.0987 71.4239 55.6977 71.6345C55.5358 71.7211 55.3728 71.8043 55.2098 71.8875C54.9714 72.01 54.7319 72.1281 54.4902 72.2439C54.4486 72.2641 54.407 72.2843 54.3654 72.3034C54.208 72.3799 54.0484 72.4541 53.8888 72.5283C51.8096 73.4872 49.6473 74.2545 47.4288 74.8206C47.4164 74.824 47.4051 74.8263 47.3928 74.8297C47.2477 74.8667 47.1016 74.9027 46.9554 74.9376C46.8464 74.9646 46.7362 74.9904 46.626 75.0151C46.6124 75.0196 46.5985 75.023 46.5844 75.0253C46.3585 75.0781 46.1325 75.1287 45.9043 75.1748C45.7761 75.2018 45.6479 75.2288 45.5198 75.2546C45.4422 75.2715 45.3635 75.2861 45.2859 75.3007C45.1881 75.3198 45.0914 75.3378 44.9936 75.3569C44.9396 75.3682 44.8857 75.3772 44.8306 75.3862C44.7069 75.4086 44.5832 75.4311 44.4607 75.4525C44.2516 75.4885 44.0402 75.5233 43.83 75.5548C43.6771 75.5784 43.5253 75.6009 43.3724 75.6223C43.1925 75.6481 43.0127 75.6717 42.8317 75.6942C42.7822 75.7021 42.7327 75.7077 42.6833 75.7133C42.6192 75.7212 42.5551 75.729 42.491 75.7369C42.3617 75.7527 42.2324 75.7673 42.102 75.7808C42.0346 75.7886 41.9682 75.7954 41.9008 75.8021C41.7726 75.8156 41.6444 75.828 41.5163 75.8392C41.351 75.855 41.1857 75.8685 41.0193 75.882C40.817 75.8977 40.6157 75.9123 40.4123 75.9247C40.2818 75.9325 40.1514 75.9404 40.0199 75.9472C39.6848 75.9651 39.3498 75.9775 39.0125 75.9865C38.845 75.991 38.6764 75.9944 38.5078 75.9966H38.5044C38.3369 75.9989 38.1682 76 37.9996 76C36.2906 76.0007 34.5835 75.8865 32.8898 75.6582C31.6475 75.4918 30.4251 75.2662 29.2225 74.9814C29.1741 74.9702 29.1258 74.9589 29.0786 74.9466C28.9572 74.9185 28.8369 74.8881 28.7166 74.8578C28.6098 74.8308 28.5041 74.8027 28.3973 74.7746C25.6447 74.0583 22.982 73.0328 20.46 71.7177C20.4476 71.7109 20.4341 71.7042 20.4218 71.6975C20.3487 71.6592 20.2767 71.6221 20.2048 71.5828C20.0463 71.4996 19.8885 71.4149 19.7315 71.3287C18.8377 70.8374 17.9668 70.312 17.1187 69.7525C16.9006 69.6097 16.6847 69.4647 16.4711 69.3174C16.4025 69.2702 16.3351 69.223 16.2676 69.1757C16.1968 69.1263 16.126 69.0768 16.0563 69.0273C15.8708 68.8958 15.6864 68.7628 15.5031 68.6282C14.7443 68.0706 14.0079 67.4856 13.294 66.8733C10.7635 64.7061 8.52753 62.2173 6.64284 59.47C5.98515 58.5121 5.37131 57.5235 4.80131 56.5042C1.64248 50.8491 -0.0109159 44.4775 -0.000407989 38C-0.000407989 17.0134 17.013 0 37.9996 0C58.9861 0 75.9996 17.0134 75.9996 38Z" fill="#0B39FF"/>
<path opacity="0.2" d="M44.1104 74.9465C44.2318 74.9184 44.3521 74.8881 44.4724 74.8577C44.5792 74.8308 44.6848 74.8026 44.7917 74.7745C44.7973 74.5508 44.8052 74.3046 44.813 74.0381C44.8793 71.9515 45.0356 68.5922 45.4044 64.5449C45.4246 64.3279 45.4449 64.1094 45.4651 63.8895C45.5966 62.5179 45.7507 61.0754 45.935 59.5802C45.9407 59.5307 45.9474 59.4823 45.953 59.4329C46.1025 58.2209 46.2723 56.9764 46.4634 55.7082C46.5972 54.8212 46.7419 53.9244 46.8974 53.0179C46.9086 52.9549 46.9199 52.8908 46.9311 52.8279C46.9761 52.5659 47.0222 52.3051 47.0694 52.042C47.2009 51.3101 47.3415 50.5737 47.4888 49.8373C48.007 47.247 48.6243 44.641 49.3606 42.1058C50.1087 39.4766 51.03 36.8997 52.1185 34.3922C52.9627 32.4443 53.9683 30.5704 55.1247 28.79C55.1416 28.7642 55.1585 28.7394 55.1753 28.7136C56.6537 26.4864 58.3435 24.5965 60.2727 23.1834L59.8725 22.637C58.0242 23.9917 56.3288 25.7943 54.7863 28.0447C54.7785 28.0559 54.7717 28.066 54.7638 28.0773C53.6039 29.7973 52.5915 31.6123 51.7373 33.5029C50.5936 36.0318 49.6289 38.6379 48.8502 41.3019C48.1127 43.7776 47.4513 46.4597 46.8659 49.3483C46.6602 50.3657 46.4638 51.4083 46.2768 52.476C46.2453 52.6581 46.2138 52.8402 46.1824 53.0235C46.1824 53.0257 46.1812 53.0291 46.1812 53.0313C46.1329 53.3124 46.0868 53.5935 46.0396 53.8779C45.9227 54.5941 45.8125 55.3046 45.7091 56.0095C45.5494 57.0955 45.4051 58.1628 45.2762 59.2114C45.2335 59.5577 45.1923 59.9013 45.1525 60.2424C45.0963 60.7235 45.0431 61.1983 44.9929 61.6668C44.9221 62.3189 44.8572 62.9571 44.7984 63.5814L44.7815 63.7534C44.7725 63.8523 44.7636 63.9513 44.7546 64.0491C44.2981 68.9722 44.1553 72.9487 44.1104 74.9465Z" fill="#1C1C1C"/>
<path opacity="0.2" d="M52.729 71.7177C52.7413 71.7109 52.7548 71.7042 52.7672 71.6974C52.9988 71.5771 53.2281 71.4546 53.4575 71.3287C53.5328 70.4315 53.634 69.4455 53.7666 68.409C53.7948 68.1954 53.8229 67.9784 53.8543 67.7603C53.8701 67.6434 53.8869 67.5253 53.9038 67.4061C54.0365 66.4932 54.1939 65.5511 54.3827 64.6045C55.1506 60.7415 56.4255 56.7931 58.5425 54.3557C58.656 54.2242 58.7718 54.0983 58.8921 53.9757C59.1902 53.666 59.5141 53.382 59.8601 53.1269L59.4599 52.5817C58.9768 52.9389 58.5322 53.3455 58.1333 53.7947C57.9927 53.951 57.8556 54.1137 57.7218 54.2827C55.7734 56.7347 54.557 60.3649 53.7993 63.9592C53.6014 64.8968 53.435 65.8333 53.2933 66.7451C53.2574 66.9834 53.2229 67.2195 53.1899 67.4534C52.9707 68.9981 52.8256 70.4574 52.729 71.7177Z" fill="#1C1C1C"/>
<path opacity="0.2" d="M64.0534 23.1676C65.9217 23.1676 67.4362 21.6531 67.4362 19.7849C67.4362 17.9167 65.9217 16.4022 64.0534 16.4022C62.1852 16.4022 60.6707 17.9167 60.6707 19.7849C60.6707 21.6531 62.1852 23.1676 64.0534 23.1676Z" fill="#1C1C1C"/>
<path opacity="0.2" d="M62.964 52.287C64.8323 52.287 66.3468 50.7725 66.3468 48.9042C66.3468 47.036 64.8323 45.5215 62.964 45.5215C61.0958 45.5215 59.5813 47.036 59.5813 48.9042C59.5813 50.7725 61.0958 52.287 62.964 52.287Z" fill="#1C1C1C"/>
<path opacity="0.2" d="M50.6238 25.4669C51.3411 29.5139 49.7576 33.1784 49.7576 33.1784C49.7576 33.1784 47.0111 30.2814 46.2937 26.2344C45.5764 22.1873 47.1599 18.5228 47.1599 18.5228C47.1599 18.5228 49.9065 21.4198 50.6238 25.4669Z" fill="#1C1C1C"/>
<path opacity="0.2" d="M61.8661 35.0737C58.0059 36.4852 54.127 35.5794 54.127 35.5794C54.127 35.5794 56.5067 32.385 60.3668 30.9735C64.2269 29.562 68.1058 30.4678 68.1058 30.4678C68.1058 30.4678 65.7262 33.6622 61.8661 35.0737Z" fill="#1C1C1C"/>
<path opacity="0.2" d="M62.5206 60.8599C59.815 61.8493 57.0924 61.2039 57.0924 61.2039C57.0924 61.2039 58.7564 58.9544 61.4621 57.9651C64.1677 56.9757 66.8904 57.6211 66.8904 57.6211C66.8904 57.6211 65.2263 59.8706 62.5206 60.8599Z" fill="#1C1C1C"/>
<path d="M49.463 60.2906L49.6001 60.3615C49.5866 60.5076 49.554 60.5976 49.463 60.2906Z" fill="#1C1C1C"/>
<path d="M49.644 60.3379C49.6451 60.3537 49.6473 60.3705 49.6485 60.3863L49.6001 60.3616C49.6013 60.3469 49.6024 60.3312 49.6046 60.3155C49.6159 60.1187 49.6024 59.886 49.644 60.3379Z" fill="#1C1C1C"/>
<path d="M35.0413 54.9595C45.2372 54.9595 53.5026 46.694 53.5026 36.4981C53.5026 26.3022 45.2372 18.0367 35.0413 18.0367C24.8453 18.0367 16.5799 26.3022 16.5799 36.4981C16.5799 46.694 24.8453 54.9595 35.0413 54.9595Z" fill="#1C1C1C"/>
<path d="M36.561 54.207C42.7356 54.207 47.7411 49.2014 47.7411 43.0268C47.7411 36.8522 42.7356 31.8467 36.561 31.8467C30.3864 31.8467 25.3809 36.8522 25.3809 43.0268C25.3809 49.2014 30.3864 54.207 36.561 54.207Z" fill="white"/>
<path d="M62.0895 64.455L62.076 64.4584L59.4756 65.0824L54.0612 66.382L53.3225 66.5597L45.0885 68.535L44.3892 68.7036L24.4122 73.4975C23.0617 72.9809 21.7423 72.3867 20.4604 71.7178C20.448 71.711 20.4346 71.7043 20.4222 71.6975C20.3491 71.6593 20.2772 71.6222 20.2052 71.5828C20.0467 71.4997 19.8889 71.415 19.7319 71.3288C18.8381 70.8375 17.9672 70.312 17.1191 69.7525C16.901 69.6098 16.6851 69.4647 16.4715 69.3175C16.403 69.2702 16.3355 69.223 16.268 69.1758C16.1972 69.1263 16.1264 69.0769 16.0567 69.0274C15.8712 68.8959 15.6868 68.7628 15.5035 68.6283C17.444 65.1015 22.0647 62.7574 26.6854 61.4746C30.1729 60.5055 30.9396 57.3205 30.8733 54.4862C30.8564 53.8397 30.8016 53.1948 30.7092 52.5547C30.5683 51.536 30.3442 50.5306 30.0391 49.5485L41.2199 49.9217L42.3734 52.5795C42.3418 52.8714 42.3317 53.1652 42.343 53.4586C42.4307 55.6386 43.7765 57.0484 45.437 57.9579C45.6528 58.076 45.8743 58.1862 46.0992 58.2885C48.8221 59.5263 52.0274 59.6106 52.0274 59.6106C53.0034 59.5027 53.9893 59.5212 54.9606 59.6657C55.1967 59.7017 55.426 59.7448 55.6486 59.795C56.9483 60.0854 58.1761 60.6349 59.2586 61.4105C59.6721 61.7047 60.0633 62.029 60.429 62.3808C61.079 62.9891 61.6382 63.6877 62.0895 64.455Z" fill="white"/>
<path d="M63.7669 65.9289C63.7197 65.9727 63.6725 66.0155 63.6253 66.0593C62.6349 66.9643 61.5972 67.8162 60.5167 68.6114C59.7916 69.1476 59.0473 69.6569 58.2839 70.1392C58.1164 70.246 57.9478 70.351 57.778 70.454C57.4834 70.6339 57.1863 70.8097 56.8865 70.9813C56.4952 71.2062 56.0991 71.4239 55.6981 71.6345C55.5362 71.7211 55.3732 71.8043 55.2102 71.8875C54.9718 72.01 54.7324 72.1281 54.4907 72.2439C54.4491 72.2641 54.4075 72.2843 54.3659 72.3034L53.8903 71.9088L59.4756 65.0823L60.5988 63.7096C60.5988 63.7096 61.0473 63.7096 62.076 64.4584C62.6446 64.8815 63.1819 65.3452 63.6837 65.8457C63.7107 65.8738 63.7388 65.9008 63.7669 65.9289Z" fill="white"/>
<path d="M63.6882 65.8525C63.6731 65.9231 63.652 65.9923 63.6253 66.0593C62.6349 66.9643 61.5972 67.8162 60.5167 68.6114C59.5792 68.9493 58.6065 69.1805 57.6172 69.3006C57.6172 69.3006 57.7015 69.7233 57.778 70.4541C57.4834 70.6339 57.1862 70.8097 56.8864 70.9813C56.4952 71.2062 56.0991 71.4239 55.6981 71.6345C55.5362 71.7211 55.3732 71.8043 55.2102 71.8875C54.9718 72.01 54.7324 72.1281 54.4906 72.2439C54.449 72.2641 54.4075 72.2844 54.3659 72.3035C54.2085 72.3799 54.0488 72.4541 53.8892 72.5283C51.81 73.4873 49.6477 74.2546 47.4292 74.8207C47.4168 74.8241 47.4056 74.8263 47.3932 74.8297C47.2482 74.8668 47.102 74.9028 46.9559 74.9376C46.8468 74.9646 46.7366 74.9905 46.6264 75.0152C46.6129 75.0196 46.599 75.023 46.5848 75.0253C46.3589 75.0782 46.1329 75.1287 45.9047 75.1748C45.7765 75.2018 45.6483 75.2288 45.5202 75.2547C45.4426 75.2715 45.3639 75.2861 45.2863 75.3008C45.1885 75.3199 45.0918 75.3379 44.994 75.357C44.9401 75.3682 44.8861 75.3772 44.831 75.3862C44.7073 75.4087 44.5837 75.4312 44.4611 75.4525C44.252 75.4885 44.0406 75.5234 43.8304 75.5548C43.6775 75.5784 43.5257 75.6009 43.3728 75.6223C43.193 75.6482 43.0131 75.6718 42.8321 75.6943C42.7826 75.7021 42.7331 75.7077 42.6837 75.7134C42.6196 75.7212 42.5555 75.7291 42.4914 75.737C42.3621 75.7527 42.2328 75.7673 42.1024 75.7808C42.035 75.7887 41.9686 75.7954 41.9012 75.8022C41.773 75.8157 41.6449 75.828 41.5167 75.8393C41.3514 75.855 41.1861 75.8685 41.0198 75.882C40.8174 75.8977 40.6162 75.9124 40.4127 75.9247C40.2822 75.9326 40.1518 75.9405 40.0203 75.9472C39.6853 75.9652 39.3502 75.9776 39.013 75.9866C38.8454 75.9911 38.6768 75.9944 38.5082 75.9967H38.5048C38.3373 75.9989 38.1686 76 38 76C36.291 76.0008 34.5839 75.8866 32.8902 75.6583C31.6479 75.4919 30.4255 75.2663 29.2229 74.9815C29.1746 74.9702 29.1262 74.959 29.079 74.9466C28.9576 74.9185 28.8373 74.8882 28.717 74.8578C28.6102 74.8308 28.5045 74.8027 28.3977 74.7746C25.6451 74.0583 22.9824 73.0328 20.4604 71.7177C20.448 71.711 20.4346 71.7042 20.4222 71.6975C20.3491 71.6593 20.2772 71.6222 20.2052 71.5828C26.3763 70.1449 36.1281 67.8773 44.5904 65.9345C44.8276 65.8806 45.0633 65.8266 45.2976 65.7726C48.423 65.0554 51.3506 64.3875 53.8273 63.8288C54.0837 63.7715 54.3348 63.7152 54.5806 63.6601C57.2417 63.062 59.3081 62.6078 60.429 62.3807C60.7311 62.3117 61.0366 62.258 61.3441 62.22L63.6837 65.8457L63.6882 65.8525Z" fill="#1C1C1C"/>
<path d="M18.1511 28.6422C21.1882 28.6422 23.6502 26.1801 23.6502 23.1431C23.6502 20.106 21.1882 17.6439 18.1511 17.6439C15.114 17.6439 12.652 20.106 12.652 23.1431C12.652 26.1801 15.114 28.6422 18.1511 28.6422Z" fill="#1C1C1C"/>
<path d="M51.9315 27.071C54.9685 27.071 57.4306 24.609 57.4306 21.5719C57.4306 18.5348 54.9685 16.0728 51.9315 16.0728C48.8944 16.0728 46.4323 18.5348 46.4323 21.5719C46.4323 24.609 48.8944 27.071 51.9315 27.071Z" fill="#1C1C1C"/>
<path d="M46.0395 19.2151C46.0397 17.8588 46.5411 16.5504 47.4474 15.5413C48.3537 14.5323 49.601 13.8938 50.9495 13.7485C50.1815 13.6646 49.4045 13.7434 48.669 13.9799C47.9336 14.2164 47.2562 14.6052 46.6811 15.1209C46.1059 15.6367 45.6459 16.2678 45.3309 16.9733C45.016 17.6787 44.8532 18.4426 44.8532 19.2151C44.8532 19.9876 45.016 20.7515 45.3309 21.4569C45.6459 22.1623 46.1059 22.7935 46.6811 23.3092C47.2562 23.825 47.9336 24.2138 48.669 24.4502C49.4045 24.6867 50.1815 24.7656 50.9495 24.6817C49.601 24.5364 48.3537 23.8979 47.4474 22.8888C46.5411 21.8798 46.0397 20.5714 46.0395 19.2151Z" fill="#1C1C1C"/>
<path d="M12.0066 27.5912C11.0576 26.6223 10.5 25.3368 10.4412 23.9818C10.3823 22.6268 10.8263 21.2978 11.6879 20.2502C11.0806 20.7278 10.5808 21.3279 10.221 22.0115C9.86116 22.6952 9.64942 23.4469 9.59955 24.2179C9.54968 24.9888 9.6628 25.7615 9.93155 26.4858C10.2003 27.2101 10.6186 27.8696 11.1593 28.4214C11.6999 28.9732 12.3508 29.4049 13.0695 29.6884C13.7881 29.9719 14.5584 30.1007 15.3302 30.0666C16.102 30.0324 16.8579 29.8361 17.5487 29.4903C18.2395 29.1445 18.8498 28.657 19.3396 28.0596C18.2747 28.8996 16.9369 29.3164 15.5834 29.2299C14.2298 29.1435 12.956 28.5598 12.0066 27.5912Z" fill="#1C1C1C"/>
<path d="M35.0413 27.8566C28.5332 27.8566 23.2574 30.9341 23.2574 34.7305C23.2574 36.4291 24.3179 37.9816 26.0684 39.1809L28.3369 37.5372L27.72 40.1123C27.976 40.2309 28.2374 40.3457 28.51 40.4518L31.8989 36.4981V41.3553C32.9381 41.5218 33.9888 41.6051 35.0413 41.6044C41.5493 41.6044 46.8251 38.5268 46.8251 34.7305C46.8251 30.9341 41.5493 27.8566 35.0413 27.8566Z" fill="#1C1C1C"/>
<path d="M46.4323 21.5719C46.4323 21.5719 45.5783 25.4999 50.9152 27.071L46.4323 21.5719Z" fill="#1C1C1C"/>
<path d="M23.2574 22.2867C23.2574 22.2867 25.2214 26.6782 19.3295 28.6421L23.2574 22.2867Z" fill="#1C1C1C"/>
<path d="M26.17 47.4162C26.6655 47.2775 26.7973 46.201 26.4644 45.0118C26.1315 43.8226 25.4599 42.971 24.9644 43.1097C24.4689 43.2484 24.3371 44.3249 24.67 45.5141C25.0029 46.7033 25.6745 47.5549 26.17 47.4162Z" fill="white"/>
<path d="M48.8574 43.4568C48.9333 42.2243 48.5785 41.1994 48.0649 41.1678C47.5513 41.1361 47.0735 42.1097 46.9976 43.3423C46.9216 44.5749 47.2764 45.5997 47.79 45.6314C48.3036 45.663 48.7815 44.6894 48.8574 43.4568Z" fill="white"/>
</g>
<defs>
<clipPath id="clip0">
<rect width="76" height="76" fill="white"/>
</clipPath>
</defs>
</svg>
