<svg viewBox="0 0 1170 576" fill="none" xmlns="http://www.w3.org/2000/svg">
<path d="M761.996 528.724C731.433 528.724 704.334 524.852 680.7 517.11C657.472 508.96 637.912 497.143 622.02 481.658C606.127 466.173 594.106 446.816 585.956 423.589C578.214 399.954 574.342 372.652 574.342 341.682V133.857C574.342 117.965 578.417 105.944 586.567 97.7939C594.717 89.6439 606.535 85.5689 622.02 85.5689C637.097 85.5689 648.711 89.6439 656.861 97.7939C665.011 105.944 669.086 117.965 669.086 133.857V342.293C669.086 377.338 677.032 403.825 692.924 421.755C708.817 439.278 731.841 448.039 761.996 448.039C792.15 448.039 814.97 439.278 830.455 421.755C846.348 403.825 854.294 377.338 854.294 342.293V133.857C854.294 117.965 858.369 105.944 866.519 97.7939C874.669 89.6439 886.283 85.5689 901.36 85.5689C916.437 85.5689 927.847 89.6439 935.59 97.7939C943.74 105.944 947.815 117.965 947.815 133.857V341.682C947.815 382.839 940.684 417.477 926.421 445.594C912.566 473.304 891.784 494.086 864.074 507.941C836.772 521.796 802.745 528.724 761.996 528.724ZM1079.33 527.501C1063.85 527.501 1052.03 523.222 1043.88 514.665C1035.73 506.108 1031.66 494.086 1031.66 478.601V134.469C1031.66 118.984 1035.73 106.963 1043.88 98.4051C1052.03 89.8477 1063.85 85.5689 1079.33 85.5689C1094.41 85.5689 1106.02 89.8477 1114.17 98.4051C1122.32 106.963 1126.4 118.984 1126.4 134.469V478.601C1126.4 494.086 1122.32 506.108 1114.17 514.665C1106.43 523.222 1094.82 527.501 1079.33 527.501Z" fill="#0153FF"/>
<path fill-rule="evenodd" clip-rule="evenodd" d="M448.847 436.824L345.376 225.977V116.161H363.679V76.8716H104.513V116.161H122.816V227.442L19.3444 436.824C6.16645 464.4 7.63067 497.101 23.249 523.213C40.3315 549.325 67.6635 565.187 99.1441 565.187H368.804C400.284 565.187 427.616 549.569 444.699 523.213C460.561 497.101 463.246 465.621 448.847 436.824ZM376.859 457.811L300.963 316.514H167.476L91.5807 457.811C81.0872 476.114 95.4853 498.321 115.252 498.321H352.211C372.954 498.565 387.352 476.114 376.859 457.811ZM166.012 426.574C156.738 426.574 150.393 419.985 150.393 410.956C150.393 401.683 156.982 395.338 166.012 395.338C175.285 395.338 181.63 401.927 181.63 410.956C181.874 418.521 175.285 426.574 166.012 426.574ZM223.604 463.18C215.795 463.18 210.426 456.591 210.426 450.002C210.426 442.193 217.015 436.824 223.604 436.824C231.413 436.824 236.782 443.413 236.782 450.002C236.782 457.811 230.193 463.18 223.604 463.18ZM223.604 417.301C210.426 417.301 199.933 406.807 199.933 393.629C199.933 380.451 210.426 369.958 223.604 369.958C236.782 369.958 247.276 380.451 247.276 393.629C247.276 406.807 236.782 417.301 223.604 417.301ZM150.393 200.109C154.298 200.109 158.202 196.204 158.202 192.3V116.161C158.202 112.256 154.298 108.352 150.393 108.352C146.489 108.352 142.584 111.036 142.584 116.161V192.056C142.584 196.204 146.489 200.109 150.393 200.109ZM150.393 224.757C146.001 224.757 142.584 221.34 142.584 216.948C142.584 212.799 146.001 209.139 150.393 209.139C154.786 209.139 158.202 212.555 158.202 216.948C158.202 221.34 154.786 224.757 150.393 224.757Z" fill="#0153FF"/>
<path d="M457.877 432.919L355.871 223.537V125.434H374.173V67.8418H94.0201V125.434H112.323V223.537L10.3158 432.919C-5.3025 464.4 -2.86215 499.785 15.4405 528.581C33.7432 557.378 65.2238 575.68 99.3889 575.68H369.048C402.969 575.68 434.45 558.598 452.753 528.581C471.055 499.785 472.276 464.4 457.877 432.919ZM436.89 519.308C422.492 542.98 397.601 557.378 368.804 557.378H99.3889C71.8128 557.378 46.9212 542.98 31.3029 519.308C16.9048 495.637 15.6846 466.84 27.3983 442.193L132.09 228.905V105.667H113.787V86.1445H354.65V105.667H336.348V228.661L441.039 441.949C452.753 467.084 451.289 495.881 436.89 519.308Z" fill="#437FEC"/>
<path d="M234.096 196.205C234.096 203.526 239.953 209.383 247.274 209.383C254.595 209.383 260.452 203.526 260.452 196.205C260.452 188.884 254.595 183.027 247.274 183.027C239.953 183.027 234.096 188.884 234.096 196.205Z" fill="#437FEC"/>
<path d="M223.604 260.142C223.604 273.076 234.097 283.814 247.275 283.814C260.209 283.814 270.946 273.32 270.946 260.142C270.946 247.208 260.453 236.471 247.519 236.471C234.097 236.715 223.604 247.208 223.604 260.142Z" fill="#437FEC"/>
<path d="M179.188 290.403C179.188 299.188 186.265 306.021 194.806 306.021C203.347 306.021 210.424 298.944 210.424 290.403C210.424 281.618 203.347 274.785 194.806 274.785C186.265 274.785 179.188 281.618 179.188 290.403Z" fill="#437FEC"/>
<path d="M184.312 42.9504C184.312 50.2715 190.169 56.1283 197.49 56.1283C204.812 56.1283 210.668 50.2715 210.668 42.9504C210.668 35.6293 204.812 29.7725 197.49 29.7725C190.169 29.7725 184.312 35.6293 184.312 42.9504Z" fill="#437FEC"/>
<path d="M218.479 9.02932C218.479 14.1541 222.627 18.3027 227.752 18.3027C232.877 18.3027 237.025 14.1541 237.025 9.27336C237.025 4.14861 232.877 0 227.752 0C222.627 0 218.479 3.90457 218.479 9.02932Z" fill="#437FEC"/>
<path d="M273.387 41.73C273.387 48.319 278.756 53.4437 285.1 53.4437C291.689 53.4437 296.814 48.075 296.814 41.73C296.814 35.3851 291.445 30.0163 285.1 30.0163C278.756 29.7723 273.387 35.1411 273.387 41.73Z" fill="#437FEC"/>
</svg>
