<svg width="85" height="18" viewBox="0 0 85 18" fill="none" xmlns="http://www.w3.org/2000/svg">
<path d="M8.36 17.288C7.208 17.288 6.136 17.088 5.144 16.688C4.168 16.272 3.304 15.704 2.552 14.984C1.816 14.248 1.24 13.4 0.824 12.44C0.408 11.464 0.2 10.416 0.2 9.296C0.2 8.016 0.44 6.816 0.92 5.696C1.416 4.576 2.088 3.592 2.936 2.744C3.8 1.896 4.792 1.232 5.912 0.751999C7.048 0.271999 8.264 0.0319996 9.56 0.0319996C11.128 0.0319996 12.512 0.335999 13.712 0.943999C14.928 1.552 15.888 2.424 16.592 3.56L13.448 6.2C13 5.416 12.424 4.824 11.72 4.424C11.032 4.008 10.24 3.8 9.344 3.8C8.656 3.8 8.008 3.936 7.4 4.208C6.792 4.48 6.256 4.864 5.792 5.36C5.344 5.84 4.992 6.4 4.736 7.04C4.48 7.68 4.352 8.36 4.352 9.08C4.352 9.912 4.544 10.664 4.928 11.336C5.328 12.008 5.864 12.536 6.536 12.92C7.224 13.304 8 13.496 8.864 13.496C9.632 13.496 10.368 13.336 11.072 13.016C11.792 12.68 12.464 12.192 13.088 11.552L15.32 14.312C14.44 15.224 13.368 15.952 12.104 16.496C10.856 17.024 9.608 17.288 8.36 17.288ZM22.508 17.24C21.292 17.24 20.204 16.976 19.244 16.448C18.284 15.904 17.524 15.168 16.964 14.24C16.404 13.312 16.124 12.272 16.124 11.12C16.124 10.16 16.308 9.256 16.676 8.408C17.06 7.544 17.58 6.792 18.236 6.152C18.908 5.496 19.676 4.984 20.54 4.616C21.42 4.248 22.348 4.064 23.324 4.064C24.54 4.064 25.62 4.336 26.564 4.88C27.524 5.408 28.284 6.136 28.844 7.064C29.404 7.976 29.684 9.016 29.684 10.184C29.684 11.144 29.492 12.048 29.108 12.896C28.74 13.744 28.22 14.496 27.548 15.152C26.892 15.808 26.132 16.32 25.268 16.688C24.404 17.056 23.484 17.24 22.508 17.24ZM22.676 13.88C23.124 13.88 23.54 13.792 23.924 13.616C24.324 13.424 24.676 13.168 24.98 12.848C25.284 12.528 25.516 12.152 25.676 11.72C25.852 11.288 25.94 10.832 25.94 10.352C25.94 9.776 25.82 9.272 25.58 8.84C25.34 8.392 25.004 8.048 24.572 7.808C24.156 7.552 23.676 7.424 23.132 7.424C22.684 7.424 22.26 7.52 21.86 7.712C21.476 7.888 21.132 8.136 20.828 8.456C20.524 8.776 20.284 9.152 20.108 9.584C19.948 10.016 19.868 10.472 19.868 10.952C19.868 11.512 19.988 12.016 20.228 12.464C20.468 12.912 20.796 13.264 21.212 13.52C21.644 13.76 22.132 13.88 22.676 13.88ZM30.1445 17L32.8325 4.304H36.6485L36.4085 5.432C36.8725 4.984 37.3765 4.648 37.9205 4.424C38.4805 4.184 39.0645 4.064 39.6725 4.064C40.4245 4.064 40.9765 4.2 41.3285 4.472L40.6325 7.832C40.4725 7.704 40.1925 7.592 39.7925 7.496C39.4085 7.4 39.0405 7.352 38.6885 7.352C37.5045 7.352 36.5045 7.832 35.6885 8.792L33.9605 17H30.1445ZM47.5649 17.264C46.3009 17.264 45.1729 17.008 44.1809 16.496C43.2049 15.968 42.4369 15.248 41.8769 14.336C41.3169 13.408 41.0369 12.36 41.0369 11.192C41.0369 10.232 41.2129 9.328 41.5649 8.48C41.9329 7.616 42.4369 6.856 43.0769 6.2C43.7169 5.544 44.4529 5.032 45.2849 4.664C46.1329 4.296 47.0369 4.112 47.9969 4.112C49.1489 4.112 50.1649 4.376 51.0449 4.904C51.9249 5.432 52.6129 6.16 53.1089 7.088C53.6049 8 53.8529 9.064 53.8529 10.28C53.8529 10.456 53.8449 10.656 53.8289 10.88C53.8129 11.104 53.7729 11.464 53.7089 11.96H44.8289C44.9569 12.376 45.1649 12.744 45.4529 13.064C45.7409 13.384 46.0849 13.632 46.4849 13.808C46.9009 13.984 47.3649 14.072 47.8769 14.072C48.3889 14.072 48.8529 14 49.2689 13.856C49.7009 13.696 50.0769 13.472 50.3969 13.184L52.5329 15.608C51.7329 16.2 50.9409 16.624 50.1569 16.88C49.3889 17.136 48.5249 17.264 47.5649 17.264ZM45.0449 9.272H50.2769C50.1649 8.872 49.9889 8.528 49.7489 8.24C49.5249 7.936 49.2449 7.704 48.9089 7.544C48.5889 7.384 48.2289 7.304 47.8289 7.304C47.4129 7.304 47.0289 7.392 46.6769 7.568C46.3249 7.728 46.0049 7.952 45.7169 8.24C45.4449 8.528 45.2209 8.872 45.0449 9.272Z" fill="black"/>
<path d="M67.2269 17.216C65.5789 17.216 64.2029 16.872 63.0989 16.184C62.0109 15.48 61.2509 14.504 60.8189 13.256C60.4029 11.992 60.3709 10.536 60.7229 8.888L62.5709 0.199999H66.6269L64.6829 9.32C64.5069 10.152 64.5069 10.88 64.6829 11.504C64.8589 12.112 65.1869 12.584 65.6669 12.92C66.1629 13.256 66.7789 13.424 67.5149 13.424C68.4749 13.424 69.3149 13.112 70.0349 12.488C70.7549 11.864 71.2189 11.048 71.4269 10.04L73.5149 0.199999H77.5469L75.3629 10.448C75.0589 11.856 74.5309 13.064 73.7789 14.072C73.0269 15.08 72.0909 15.856 70.9709 16.4C69.8669 16.944 68.6189 17.216 67.2269 17.216ZM76.4615 17L80.0375 0.199999H84.0695L80.4935 17H76.4615Z" fill="#0B39FF"/>
</svg>
