<svg viewBox="0 0 5411 576" fill="none" xmlns="http://www.w3.org/2000/svg">
<path d="M772.91 504C757.017 504 744.792 499.721 736.235 491.164C727.677 482.606 723.399 470.381 723.399 454.489V122.581C723.399 106.689 727.677 94.4638 736.235 85.9064C744.792 77.3489 757.017 73.0701 772.91 73.0701H986.235C998.46 73.0701 1007.63 76.3301 1013.74 82.8501C1020.26 88.9626 1023.52 97.9276 1023.52 109.745C1023.52 121.97 1020.26 131.342 1013.74 137.862C1007.63 143.975 998.46 147.031 986.235 147.031H813.863V247.887H972.177C984.809 247.887 994.181 251.147 1000.29 257.667C1006.81 263.78 1010.07 272.948 1010.07 285.173C1010.07 297.398 1006.81 306.771 1000.29 313.291C994.181 319.403 984.809 322.459 972.177 322.459H813.863V430.039H986.235C998.46 430.039 1007.63 433.299 1013.74 439.819C1020.26 445.931 1023.52 454.896 1023.52 466.714C1023.52 478.939 1020.26 488.311 1013.74 494.831C1007.63 500.944 998.46 504 986.235 504H772.91ZM1120.39 509.501C1108.16 509.501 1097.97 506.241 1089.82 499.721C1082.08 492.794 1077.6 484.44 1076.38 474.66C1075.15 464.473 1078.41 454.081 1086.16 443.486L1221.24 264.391V306.567L1091.66 134.195C1083.91 123.192 1080.45 112.801 1081.27 103.021C1082.49 92.8338 1086.97 84.4801 1094.71 77.9601C1102.86 71.0327 1112.85 67.5689 1124.66 67.5689C1134.85 67.5689 1143.61 70.0139 1150.95 74.9039C1158.69 79.7939 1166.43 87.5363 1174.17 98.1313L1275.03 237.496H1244.47L1344.71 98.1313C1352.46 87.1288 1360.2 79.3864 1367.94 74.9039C1375.68 70.0139 1384.65 67.5689 1394.84 67.5689C1407.06 67.5689 1417.04 70.8289 1424.79 77.3489C1432.94 83.8689 1437.42 92.2226 1438.23 102.41C1439.46 112.19 1435.99 122.785 1427.84 134.195L1297.65 306.567V264.391L1432.12 443.486C1440.27 454.081 1443.74 464.473 1442.51 474.66C1441.7 484.44 1437.22 492.794 1429.07 499.721C1421.32 506.241 1411.14 509.501 1398.5 509.501C1388.72 509.501 1379.96 507.056 1372.22 502.166C1364.88 497.276 1357.14 489.33 1348.99 478.328L1243.86 333.462H1275.03L1169.9 478.328C1162.15 489.33 1154.41 497.276 1146.67 502.166C1138.93 507.056 1130.17 509.501 1120.39 509.501ZM1559.61 509.501C1544.12 509.501 1532.31 505.222 1524.16 496.665C1516.01 488.108 1511.93 476.086 1511.93 460.601V121.359C1511.93 105.466 1516.01 93.4451 1524.16 85.2951C1532.71 77.1451 1544.74 73.0701 1560.22 73.0701H1708.75C1756.84 73.0701 1793.92 85.2951 1820 109.745C1846.08 133.787 1859.12 167.406 1859.12 210.601C1859.12 253.796 1846.08 287.618 1820 312.068C1793.92 336.518 1756.84 348.743 1708.75 348.743H1606.68V460.601C1606.68 476.086 1602.6 488.108 1594.45 496.665C1586.71 505.222 1575.09 509.501 1559.61 509.501ZM1606.68 275.393H1692.86C1717.31 275.393 1735.85 269.892 1748.49 258.89C1761.53 247.887 1768.05 231.791 1768.05 210.601C1768.05 189.411 1761.53 173.519 1748.49 162.924C1735.85 152.329 1717.31 147.031 1692.86 147.031H1606.68V275.393ZM1967.35 504C1951.46 504 1939.23 499.721 1930.68 491.164C1922.12 482.606 1917.84 470.381 1917.84 454.489V122.581C1917.84 106.689 1922.12 94.4638 1930.68 85.9064C1939.23 77.3489 1951.46 73.0701 1967.35 73.0701H2180.68C2192.9 73.0701 2202.07 76.3301 2208.18 82.8501C2214.7 88.9626 2217.96 97.9276 2217.96 109.745C2217.96 121.97 2214.7 131.342 2208.18 137.862C2202.07 143.975 2192.9 147.031 2180.68 147.031H2008.3V247.887H2166.62C2179.25 247.887 2188.62 251.147 2194.73 257.667C2201.25 263.78 2204.51 272.948 2204.51 285.173C2204.51 297.398 2201.25 306.771 2194.73 313.291C2188.62 319.403 2179.25 322.459 2166.62 322.459H2008.3V430.039H2180.68C2192.9 430.039 2202.07 433.299 2208.18 439.819C2214.7 445.931 2217.96 454.896 2217.96 466.714C2217.96 478.939 2214.7 488.311 2208.18 494.831C2202.07 500.944 2192.9 504 2180.68 504H1967.35ZM2335.61 509.501C2320.12 509.501 2308.31 505.222 2300.16 496.665C2292.01 488.108 2287.93 476.086 2287.93 460.601V121.359C2287.93 105.466 2292.01 93.4451 2300.16 85.2951C2308.71 77.1451 2320.73 73.0701 2336.22 73.0701H2484.75C2532.84 73.0701 2569.92 84.6839 2596 107.911C2622.08 131.139 2635.12 163.535 2635.12 205.1C2635.12 231.995 2629.21 255.222 2617.39 274.782C2605.58 294.342 2588.46 309.419 2566.05 320.014C2544.04 330.609 2516.95 335.907 2484.75 335.907L2489.64 325.516H2514.7C2531.82 325.516 2546.69 329.794 2559.32 338.352C2572.36 346.502 2583.57 359.134 2592.94 376.249L2630.84 446.543C2636.55 456.73 2639.19 466.714 2638.79 476.494C2638.38 486.274 2634.71 494.22 2627.78 500.333C2620.86 506.445 2610.67 509.501 2597.22 509.501C2583.77 509.501 2572.77 506.649 2564.21 500.944C2556.06 495.239 2548.73 486.478 2542.21 474.66L2483.53 366.469C2477.42 355.059 2469.88 347.317 2460.91 343.242C2452.36 339.167 2441.76 337.129 2429.13 337.129H2382.67V460.601C2382.67 476.086 2378.6 488.108 2370.45 496.665C2362.71 505.222 2351.09 509.501 2335.61 509.501ZM2382.67 268.67H2467.64C2492.9 268.67 2511.85 263.576 2524.48 253.388C2537.52 243.201 2544.04 227.92 2544.04 207.545C2544.04 187.577 2537.52 172.5 2524.48 162.312C2511.85 152.125 2492.9 147.031 2467.64 147.031H2382.67V268.67ZM2761.21 509.501C2745.73 509.501 2733.91 505.222 2725.76 496.665C2717.61 488.108 2713.54 476.086 2713.54 460.601V116.469C2713.54 100.984 2717.61 88.9626 2725.76 80.4051C2733.91 71.8477 2745.73 67.5689 2761.21 67.5689C2776.29 67.5689 2787.9 71.8477 2796.05 80.4051C2804.2 88.9626 2808.28 100.984 2808.28 116.469V460.601C2808.28 476.086 2804.2 488.108 2796.05 496.665C2788.31 505.222 2776.7 509.501 2761.21 509.501ZM2939.01 509.501C2925.16 509.501 2914.56 505.63 2907.23 497.888C2899.89 490.145 2896.22 479.346 2896.22 465.491V111.579C2896.22 97.7238 2900.09 86.9251 2907.84 79.1826C2915.99 71.4401 2926.99 67.5689 2940.84 67.5689C2953.07 67.5689 2962.65 70.0139 2969.57 74.9039C2976.91 79.3864 2983.63 87.3326 2989.74 98.7426L3130.94 356.689H3110.16L3251.36 98.7426C3257.47 87.3326 3263.99 79.3864 3270.92 74.9039C3278.25 70.0139 3287.83 67.5689 3299.65 67.5689C3313.5 67.5689 3324.1 71.4401 3331.43 79.1826C3339.17 86.9251 3343.05 97.7238 3343.05 111.579V465.491C3343.05 479.346 3339.38 490.145 3332.04 497.888C3324.71 505.63 3314.11 509.501 3300.26 509.501C3286.4 509.501 3275.6 505.63 3267.86 497.888C3260.53 490.145 3256.86 479.346 3256.86 465.491V217.936H3270.31L3156.61 421.482C3151.72 429.224 3146.43 435.133 3140.72 439.208C3135.42 442.875 3128.29 444.709 3119.33 444.709C3110.36 444.709 3103.03 442.671 3097.32 438.596C3091.62 434.521 3086.52 428.816 3082.04 421.482L2967.13 217.325H2981.8V465.491C2981.8 479.346 2978.13 490.145 2970.8 497.888C2963.87 505.63 2953.27 509.501 2939.01 509.501ZM3479.95 504C3464.06 504 3451.83 499.721 3443.28 491.164C3434.72 482.606 3430.44 470.381 3430.44 454.489V122.581C3430.44 106.689 3434.72 94.4638 3443.28 85.9064C3451.83 77.3489 3464.06 73.0701 3479.95 73.0701H3693.28C3705.5 73.0701 3714.67 76.3301 3720.78 82.8501C3727.3 88.9626 3730.56 97.9276 3730.56 109.745C3730.56 121.97 3727.3 131.342 3720.78 137.862C3714.67 143.975 3705.5 147.031 3693.28 147.031H3520.9V247.887H3679.22C3691.85 247.887 3701.22 251.147 3707.33 257.667C3713.85 263.78 3717.11 272.948 3717.11 285.173C3717.11 297.398 3713.85 306.771 3707.33 313.291C3701.22 319.403 3691.85 322.459 3679.22 322.459H3520.9V430.039H3693.28C3705.5 430.039 3714.67 433.299 3720.78 439.819C3727.3 445.931 3730.56 454.896 3730.56 466.714C3730.56 478.939 3727.3 488.311 3720.78 494.831C3714.67 500.944 3705.5 504 3693.28 504H3479.95ZM3844.54 509.501C3830.28 509.501 3819.28 505.63 3811.53 497.888C3804.2 489.738 3800.53 478.328 3800.53 463.658V115.246C3800.53 99.7613 3804.2 87.9439 3811.53 79.7939C3819.28 71.6439 3829.46 67.5689 3842.1 67.5689C3853.1 67.5689 3861.45 69.8102 3867.16 74.2927C3873.27 78.3676 3880.2 85.2951 3887.94 95.0751L4102.49 368.303H4085.98V112.801C4085.98 98.5388 4089.65 87.5364 4096.99 79.7939C4104.73 71.6439 4115.73 67.5689 4129.99 67.5689C4144.26 67.5689 4155.05 71.6439 4162.39 79.7939C4170.13 87.5364 4174 98.5388 4174 112.801V465.491C4174 478.939 4170.54 489.738 4163.61 497.888C4156.68 505.63 4147.31 509.501 4135.49 509.501C4124.08 509.501 4114.92 507.26 4107.99 502.778C4101.47 498.295 4094.34 491.164 4086.59 481.384L3872.66 208.156H3888.55V463.658C3888.55 478.328 3884.88 489.738 3877.55 497.888C3870.21 505.63 3859.21 509.501 3844.54 509.501ZM4411.12 509.501C4395.64 509.501 4383.82 505.222 4375.67 496.665C4367.52 488.108 4363.45 476.086 4363.45 460.601V151.31H4255.26C4242.62 151.31 4232.84 147.846 4225.92 140.919C4218.99 133.991 4215.53 124.415 4215.53 112.19C4215.53 99.5576 4218.99 89.9813 4225.92 83.4614C4232.84 76.5339 4242.62 73.0701 4255.26 73.0701H4566.38C4579.01 73.0701 4588.79 76.5339 4595.72 83.4614C4602.65 89.9813 4606.11 99.5576 4606.11 112.19C4606.11 124.415 4602.65 133.991 4595.72 140.919C4588.79 147.846 4579.01 151.31 4566.38 151.31H4458.19V460.601C4458.19 476.086 4454.12 488.108 4445.97 496.665C4438.22 505.222 4426.61 509.501 4411.12 509.501Z" fill="white"/>
<path d="M5002.28 510.724C4971.72 510.724 4944.62 506.852 4920.99 499.11C4897.76 490.96 4878.2 479.143 4862.31 463.658C4846.41 448.173 4834.39 428.816 4826.24 405.589C4818.5 381.954 4814.63 354.652 4814.63 323.682V115.857C4814.63 99.9651 4818.7 87.9439 4826.85 79.7939C4835 71.6439 4846.82 67.5689 4862.31 67.5689C4877.38 67.5689 4889 71.6439 4897.15 79.7939C4905.3 87.9439 4909.37 99.9651 4909.37 115.857V324.293C4909.37 359.338 4917.32 385.825 4933.21 403.755C4949.1 421.278 4972.13 430.039 5002.28 430.039C5032.44 430.039 5055.26 421.278 5070.74 403.755C5086.63 385.825 5094.58 359.338 5094.58 324.293V115.857C5094.58 99.9651 5098.66 87.9439 5106.81 79.7939C5114.96 71.6439 5126.57 67.5689 5141.65 67.5689C5156.72 67.5689 5168.13 71.6439 5175.88 79.7939C5184.03 87.9439 5188.1 99.9651 5188.1 115.857V323.682C5188.1 364.839 5180.97 399.477 5166.71 427.594C5152.85 455.304 5132.07 476.086 5104.36 489.941C5077.06 503.796 5043.03 510.724 5002.28 510.724ZM5319.62 509.501C5304.14 509.501 5292.32 505.222 5284.17 496.665C5276.02 488.108 5271.94 476.086 5271.94 460.601V116.469C5271.94 100.984 5276.02 88.9626 5284.17 80.4051C5292.32 71.8477 5304.14 67.5689 5319.62 67.5689C5334.7 67.5689 5346.31 71.8477 5354.46 80.4051C5362.61 88.9626 5366.69 100.984 5366.69 116.469V460.601C5366.69 476.086 5362.61 488.108 5354.46 496.665C5346.72 505.222 5335.11 509.501 5319.62 509.501Z" fill="#0153FF"/>
<path fill-rule="evenodd" clip-rule="evenodd" d="M448.847 436.824L345.376 225.977V116.161H363.679V76.8716H104.513V116.161H122.816V227.442L19.3444 436.824C6.16645 464.4 7.63067 497.101 23.249 523.213C40.3315 549.325 67.6635 565.187 99.1441 565.187H368.804C400.284 565.187 427.616 549.569 444.699 523.213C460.561 497.101 463.246 465.621 448.847 436.824ZM376.859 457.811L300.963 316.514H167.476L91.5807 457.811C81.0872 476.114 95.4853 498.321 115.252 498.321H352.211C372.954 498.565 387.352 476.114 376.859 457.811ZM166.012 426.574C156.738 426.574 150.393 419.985 150.393 410.956C150.393 401.683 156.982 395.338 166.012 395.338C175.285 395.338 181.63 401.927 181.63 410.956C181.874 418.521 175.285 426.574 166.012 426.574ZM223.604 463.18C215.795 463.18 210.426 456.591 210.426 450.002C210.426 442.193 217.015 436.824 223.604 436.824C231.413 436.824 236.782 443.413 236.782 450.002C236.782 457.811 230.193 463.18 223.604 463.18ZM223.604 417.301C210.426 417.301 199.933 406.807 199.933 393.629C199.933 380.451 210.426 369.958 223.604 369.958C236.782 369.958 247.276 380.451 247.276 393.629C247.276 406.807 236.782 417.301 223.604 417.301ZM150.393 200.109C154.298 200.109 158.202 196.204 158.202 192.3V116.161C158.202 112.256 154.298 108.352 150.393 108.352C146.489 108.352 142.584 111.036 142.584 116.161V192.056C142.584 196.204 146.489 200.109 150.393 200.109ZM150.393 224.757C146.001 224.757 142.584 221.34 142.584 216.948C142.584 212.799 146.001 209.139 150.393 209.139C154.786 209.139 158.202 212.555 158.202 216.948C158.202 221.34 154.786 224.757 150.393 224.757Z" fill="#0153FF"/>
<path d="M457.877 432.919L355.871 223.537V125.434H374.173V67.8418H94.0201V125.434H112.323V223.537L10.3158 432.919C-5.3025 464.4 -2.86215 499.785 15.4405 528.581C33.7432 557.378 65.2238 575.68 99.3889 575.68H369.048C402.969 575.68 434.45 558.598 452.753 528.581C471.055 499.785 472.276 464.4 457.877 432.919ZM436.89 519.308C422.492 542.98 397.601 557.378 368.804 557.378H99.3889C71.8128 557.378 46.9212 542.98 31.3029 519.308C16.9048 495.637 15.6846 466.84 27.3983 442.193L132.09 228.905V105.667H113.787V86.1445H354.65V105.667H336.348V228.661L441.039 441.949C452.753 467.084 451.289 495.881 436.89 519.308Z" fill="#437FEC"/>
<path d="M234.096 196.205C234.096 203.526 239.953 209.383 247.274 209.383C254.595 209.383 260.452 203.526 260.452 196.205C260.452 188.884 254.595 183.027 247.274 183.027C239.953 183.027 234.096 188.884 234.096 196.205Z" fill="#437FEC"/>
<path d="M223.604 260.142C223.604 273.076 234.097 283.814 247.275 283.814C260.209 283.814 270.946 273.32 270.946 260.142C270.946 247.208 260.453 236.471 247.519 236.471C234.097 236.715 223.604 247.208 223.604 260.142Z" fill="#437FEC"/>
<path d="M179.188 290.403C179.188 299.188 186.265 306.021 194.806 306.021C203.347 306.021 210.424 298.944 210.424 290.403C210.424 281.618 203.347 274.785 194.806 274.785C186.265 274.785 179.188 281.618 179.188 290.403Z" fill="#437FEC"/>
<path d="M184.312 42.9504C184.312 50.2715 190.169 56.1283 197.49 56.1283C204.812 56.1283 210.668 50.2715 210.668 42.9504C210.668 35.6293 204.812 29.7725 197.49 29.7725C190.169 29.7725 184.312 35.6293 184.312 42.9504Z" fill="#437FEC"/>
<path d="M218.479 9.02932C218.479 14.1541 222.627 18.3027 227.752 18.3027C232.877 18.3027 237.025 14.1541 237.025 9.27336C237.025 4.14861 232.877 0 227.752 0C222.627 0 218.479 3.90457 218.479 9.02932Z" fill="#437FEC"/>
<path d="M273.387 41.73C273.387 48.319 278.756 53.4437 285.1 53.4437C291.689 53.4437 296.814 48.075 296.814 41.73C296.814 35.3851 291.445 30.0163 285.1 30.0163C278.756 29.7723 273.387 35.1411 273.387 41.73Z" fill="#437FEC"/>
</svg>
